<svg width="21" height="22" viewBox="0 0 21 22" fill="none" xmlns="http://www.w3.org/2000/svg">
<g clip-path="url(#clip0_1_557)">
<path d="M10.5 20.0812C10.3938 20.0812 10.2876 20.0537 10.1924 19.9988C10.0891 19.9391 7.63343 18.5133 5.14255 16.365C3.66624 15.0918 2.48778 13.8289 1.63999 12.6116C0.542906 11.0363 -0.00879439 9.52113 0.000105988 8.10803C0.0105239 6.46371 0.599466 4.91735 1.65857 3.75373C2.73556 2.57052 4.17282 1.91895 5.7057 1.91895C7.67022 1.91895 9.46633 3.01939 10.5 4.76263C11.5338 3.01943 13.3299 1.91895 15.2944 1.91895C16.7426 1.91895 18.1243 2.50686 19.1851 3.57441C20.3493 4.74594 21.0107 6.40125 20.9999 8.11582C20.991 9.52647 20.4289 11.0394 19.3294 12.6124C18.479 13.8292 17.3022 15.0915 15.8317 16.3643C13.3499 18.5124 10.9119 19.9382 10.8093 19.9978C10.7137 20.0534 10.6068 20.0812 10.5 20.0812Z" fill="#222520"/>
</g>
<defs>
<clipPath id="clip0_1_557">
<rect width="21" height="21" fill="white" transform="translate(0 0.5)"/>
</clipPath>
</defs>
</svg>
