<svg width="64" height="64" viewBox="0 0 64 64" fill="none" xmlns="http://www.w3.org/2000/svg">
<g clip-path="url(#clip0_1_190)">
<path d="M32 64C14.326 64 0 49.674 0 32C0 14.3281 14.326 0 32 0C49.674 0 64 14.3281 64 32C64 49.674 49.674 64 32 64ZM46 30H24.828L33.0699 21.758C33.852 20.976 33.852 19.71 33.0699 18.9301C32.2879 18.148 31.022 18.148 30.242 18.9301L18.928 30.244C18.45 30.722 18.3 31.38 18.4099 32C18.2999 32.62 18.45 33.278 18.93 33.758L30.244 45.072C31.026 45.854 32.292 45.854 33.072 45.072C33.854 44.29 33.854 43.024 33.072 42.244L24.828 34H46C47.104 34 48 33.104 48 32C48 30.896 47.104 30 46 30Z" fill="#5A5A5A"/>
</g>
<defs>
<clipPath id="clip0_1_190">
<rect width="64" height="64" fill="white" transform="matrix(1 0 0 -1 0 64)"/>
</clipPath>
</defs>
</svg>
