<svg width="64" height="64" viewBox="0 0 64 64" fill="none" xmlns="http://www.w3.org/2000/svg">
<g clip-path="url(#clip0_1_195)">
<path d="M32 0C49.674 0 64 14.326 64 32C64 49.6719 49.674 64 32 64C14.326 64 0 49.6719 0 32C0 14.326 14.326 0 32 0ZM18 34H39.172L30.9301 42.242C30.148 43.024 30.148 44.29 30.9301 45.0699C31.7121 45.852 32.978 45.852 33.758 45.0699L45.072 33.756C45.55 33.278 45.7 32.62 45.5901 32C45.7001 31.38 45.55 30.722 45.07 30.242L33.756 18.928C32.974 18.146 31.708 18.146 30.928 18.928C30.146 19.71 30.146 20.976 30.928 21.756L39.172 30H18C16.896 30 16 30.896 16 32C16 33.104 16.896 34 18 34Z" fill="#1D252D"/>
</g>
<defs>
<clipPath id="clip0_1_195">
<rect width="64" height="64" fill="white" transform="matrix(-1 0 0 1 64 0)"/>
</clipPath>
</defs>
</svg>
