<svg width="26" height="20" viewBox="0 0 26 20" fill="none" xmlns="http://www.w3.org/2000/svg">
<path d="M16.5747 8.73961L11.0588 5.72156C10.7416 5.54802 10.3667 5.5545 10.0559 5.7387C9.7448 5.92309 9.55927 6.24882 9.55927 6.61036V12.5947C9.55927 12.9545 9.74366 13.2796 10.0526 13.4642C10.214 13.5606 10.3928 13.609 10.5721 13.609C10.7363 13.609 10.9009 13.5684 11.0523 13.4869L16.5684 10.5208C16.8958 10.3446 17.1002 10.0042 17.1017 9.63222C17.1031 9.26021 16.9011 8.91828 16.5747 8.73961ZM11.0224 11.8419V7.36926L15.1449 9.62498L11.0224 11.8419Z" fill="white"/>
<path d="M25.0314 4.86379L25.0303 4.85236C25.0091 4.65139 24.7987 2.86388 23.9297 1.95469C22.9252 0.885306 21.7865 0.755395 21.2389 0.693106C21.1935 0.687963 21.152 0.683201 21.1149 0.678248L21.0712 0.673676C17.7705 0.433665 12.7857 0.400901 12.7358 0.400711L12.7314 0.40052L12.727 0.400711C12.6771 0.400901 7.6923 0.433665 4.36185 0.673676L4.31785 0.678248C4.28242 0.68301 4.24337 0.687391 4.20089 0.692344C3.65953 0.754823 2.533 0.884925 1.52571 1.99298C0.698049 2.89245 0.4588 4.64168 0.434227 4.83826L0.43137 4.86379C0.423941 4.94741 0.247742 6.93817 0.247742 8.93675V10.805C0.247742 12.8036 0.423941 14.7944 0.43137 14.8782L0.432703 14.8908C0.453847 15.0885 0.664143 16.8432 1.52914 17.7528C2.47356 18.7864 3.66772 18.9231 4.31004 18.9967C4.41156 19.0083 4.499 19.0182 4.55862 19.0287L4.61634 19.0367C6.52214 19.218 12.4975 19.3073 12.7508 19.311L12.7584 19.3112L12.7661 19.311C12.816 19.3108 17.8006 19.278 21.1013 19.038L21.145 19.0334C21.1867 19.0279 21.2335 19.023 21.285 19.0176C21.8233 18.9605 22.9437 18.8418 23.9371 17.7488C24.7648 16.8491 25.0042 15.0999 25.0286 14.9035L25.0314 14.878C25.0389 14.7942 25.2153 12.8036 25.2153 10.805V8.93675C25.2151 6.93817 25.0389 4.9476 25.0314 4.86379ZM23.7519 10.805C23.7519 12.6548 23.5904 14.5599 23.5752 14.7347C23.5131 15.2165 23.2607 16.3232 22.8574 16.7615C22.2357 17.4455 21.597 17.5134 21.1307 17.5627C21.0743 17.5686 21.0221 17.5743 20.9749 17.5802C17.7823 17.8111 12.9857 17.8465 12.7647 17.8478C12.5169 17.8442 6.62901 17.7541 4.7813 17.5825C4.68663 17.5671 4.58433 17.5553 4.47652 17.5431C3.92964 17.4804 3.18103 17.3947 2.60538 16.7615L2.59186 16.747C2.19565 16.3343 1.95049 15.2993 1.8882 14.7405C1.87658 14.6083 1.71086 12.6807 1.71086 10.805V8.93675C1.71086 7.08904 1.87201 5.18609 1.88763 5.0076C1.96173 4.44015 2.21889 3.40048 2.60538 2.98027C3.24617 2.27547 3.92183 2.19737 4.36871 2.14575C4.41137 2.1408 4.45119 2.13622 4.48795 2.13146C7.72696 1.89945 12.5581 1.86497 12.7314 1.86364C12.9047 1.86478 17.7341 1.89945 20.9444 2.13146C20.9838 2.13641 21.0269 2.14137 21.0731 2.1467C21.5328 2.19908 22.2275 2.27833 22.865 2.95836L22.8709 2.96465C23.2672 3.37743 23.5123 4.43043 23.5746 5.00055C23.5856 5.12532 23.7519 7.05704 23.7519 8.93675V10.805Z" fill="white"/>
</svg>
