<svg width="21" height="20" viewBox="0 0 21 20" fill="none" xmlns="http://www.w3.org/2000/svg">
<path d="M0.719238 19.6314H5.82301V6.21035H0.719238V19.6314ZM1.87419 7.3653H4.66806V18.4764H1.87419V7.3653Z" fill="white"/>
<path d="M3.27115 0.0794754C1.69814 0.0794754 0.418457 1.3592 0.418457 2.93217C0.418457 4.50514 1.69814 5.7849 3.27115 5.7849C4.84416 5.7849 6.12388 4.50518 6.12388 2.93217C6.12388 1.35916 4.84412 0.0794754 3.27115 0.0794754ZM1.57341 2.93217C1.57341 1.99604 2.33499 1.23443 3.27115 1.23443C4.20732 1.23443 4.96893 1.996 4.96893 2.93217C4.96893 3.86834 4.20732 4.62995 3.27115 4.62995C2.33499 4.62995 1.57341 3.8683 1.57341 2.93217Z" fill="white"/>
<path d="M20.1178 10.4255C19.9362 7.81322 17.7572 5.80018 15.0557 5.80018C13.8473 5.80018 12.7067 6.22027 11.8079 6.96568V6.21111H6.91748V19.6322H12.0213V12.2919C12.0213 11.4646 12.6943 10.7916 13.5216 10.7916C14.3488 10.7916 15.0218 11.4646 15.0218 12.2922L15.0267 19.6322H20.1302V10.4379L20.1178 10.4255ZM10.8663 18.4773H8.07243V7.3661H10.6529V9.01564L11.5771 9.02096L11.7488 8.75439C12.4745 7.62774 13.7107 6.95517 15.0557 6.95517C17.2053 6.95517 18.9264 8.59528 18.9741 10.6889L18.9752 18.4773H16.1809L16.1768 12.2919C16.1768 10.8278 14.9856 9.63666 13.5216 9.63666C12.0575 9.63666 10.8663 10.8278 10.8663 12.2919V18.4773Z" fill="white"/>
</svg>
