<svg width="21" height="20" viewBox="0 0 21 20" fill="none" xmlns="http://www.w3.org/2000/svg">
<path d="M15.1168 0H5.26117C2.55112 0 0.333374 2.21775 0.333374 4.9278V14.7839C0.333374 17.4932 2.55112 19.7117 5.26117 19.7117H15.1168C17.8268 19.7117 20.0446 17.4932 20.0446 14.7839V4.9278C20.0446 2.21775 17.8268 0 15.1168 0ZM18.4019 14.7839C18.4019 16.5948 16.9287 18.069 15.1168 18.069H5.26117C3.44997 18.069 1.97605 16.5948 1.97605 14.7839V4.9278C1.97605 3.11635 3.44997 1.64268 5.26117 1.64268H15.1168C16.9287 1.64268 18.4019 3.11635 18.4019 4.9278V14.7839Z" fill="white"/>
<path d="M15.5282 5.74918C16.2086 5.74918 16.7602 5.19762 16.7602 4.51724C16.7602 3.83685 16.2086 3.28529 15.5282 3.28529C14.8478 3.28529 14.2963 3.83685 14.2963 4.51724C14.2963 5.19762 14.8478 5.74918 15.5282 5.74918Z" fill="white"/>
<path d="M10.1891 4.92793C7.46696 4.92793 5.26129 7.13384 5.26129 9.85572C5.26129 12.5766 7.46696 14.784 10.1891 14.784C12.9104 14.784 15.1169 12.5766 15.1169 9.85572C15.1169 7.13384 12.9104 4.92793 10.1891 4.92793ZM10.1891 13.1413C8.3749 13.1413 6.90397 11.6704 6.90397 9.85572C6.90397 8.04105 8.3749 6.5706 10.1891 6.5706C12.0033 6.5706 13.4742 8.04105 13.4742 9.85572C13.4742 11.6704 12.0033 13.1413 10.1891 13.1413Z" fill="white"/>
</svg>
