<svg width="145" height="72" viewBox="0 0 145 72" fill="none" xmlns="http://www.w3.org/2000/svg">
<path d="M86.4963 24.0668L112.177 9.08571C119.495 5.13666 128.139 4.48819 135.961 7.30111C140.575 9.13962 141.506 15.6181 137.152 18.3554L78.9192 54.9686H36.8L25.2385 25.9623C25.2385 25.9623 32.5439 -3.56267 61.1112 7.73053L82.9906 7.97529C86.9375 8.09457 90.0853 11.9748 90.0853 16.7205C90.0853 21.5519 86.8272 25.4684 82.8081 25.4684H61.3963" fill="white"/>
<path d="M135.961 7.30112C134.798 6.89369 133.611 6.54111 132.409 6.27373L75.1172 42.2952H31.7306L36.8 54.9686H78.9194L137.153 18.3551C141.509 15.6163 140.8 9.04142 135.961 7.30112Z" fill="#F1F2F4"/>
<path d="M144.933 11.9151C144.47 7.64316 141.674 4.08759 137.638 2.63605C128.504 -0.648429 118.367 0.112199 109.823 4.72305C109.775 4.74907 109.726 4.77602 109.679 4.8036L94.7132 13.5339C93.4727 7.59855 88.8342 3.19219 83.1402 3.01992C83.1086 3.01899 83.0773 3.01838 83.0457 3.01807L62.0577 2.78353C42.468 -4.54636 31.4543 5.34641 26.6014 11.9711L34.5993 17.8303C40.4287 9.87268 48.5047 8.07754 59.2882 12.3405C59.8512 12.5629 60.4501 12.6806 61.0555 12.6875L82.8688 12.9313C85.9937 13.1057 85.9017 20.5112 82.8078 20.5112H61.396V30.4257H82.8078C85.5628 30.4257 88.1074 29.3995 90.1547 27.6719L114.6 13.4112C120.653 10.1701 127.823 9.64217 134.283 11.9659C135.265 12.5992 135.341 13.33 134.514 14.1588L77.4902 50.0117H32.9507V59.9262H78.9195C79.8533 59.9262 80.7679 59.6625 81.5583 59.1656L139.791 22.552C143.426 20.2664 145.397 16.1904 144.933 11.9151Z" fill="#5D3B2F"/>
<path d="M37.7558 64.2043L24.8893 71.2234C22.6167 72.463 19.7697 71.5016 18.7145 69.1376L0.386026 28.08C-0.573818 25.9301 0.313527 23.4047 2.40703 22.3277L16.2616 15.1989C18.5586 14.0169 21.3759 15.0403 22.3788 17.4213L39.7192 58.5887C40.6034 60.6868 39.7548 63.1137 37.7558 64.2043Z" fill="#FFBB5C"/>
</svg>
