<svg width="145" height="72" viewBox="0 0 145 72" fill="none" xmlns="http://www.w3.org/2000/svg">
<path d="M86.4961 24.0665L112.176 9.08548C119.495 5.13643 128.138 4.48796 135.96 7.30088C140.575 9.13939 141.506 15.6179 137.152 18.3552L78.9189 54.9684H36.7998L25.2383 25.9621C25.2383 25.9621 32.5437 -3.5629 61.111 7.7303L82.9904 7.97506C86.9372 8.09435 90.0851 11.9746 90.0851 16.7202C90.0851 21.5517 86.827 25.4682 82.8079 25.4682H61.396" fill="white"/>
<path d="M135.961 7.30107C134.798 6.89365 133.611 6.54106 132.409 6.27368L75.1171 42.2951H31.7305L36.7999 54.9686H78.9193L137.153 18.3551C141.509 15.6162 140.8 9.04137 135.961 7.30107Z" fill="#F1F2F4"/>
<path d="M144.933 11.9149C144.47 7.64304 141.674 4.08747 137.638 2.63593C128.505 -0.648551 118.367 0.112077 109.823 4.72292C109.775 4.74895 109.726 4.7759 109.679 4.80348L94.7133 13.5338C93.4728 7.59843 88.8344 3.19207 83.1404 3.0198C83.1088 3.01887 83.0775 3.01825 83.0459 3.01794L62.0579 2.7834C42.4681 -4.54649 31.4544 5.34629 26.6016 11.971L34.5994 17.8302C40.4288 9.87256 48.5048 8.07742 59.2883 12.3403C59.8513 12.5628 60.4502 12.6805 61.0556 12.6873L82.8689 12.9312C85.9939 13.1056 85.9018 20.5111 82.8079 20.5111H61.3961V30.4256H82.8079C85.5629 30.4256 88.1075 29.3994 90.1548 27.6718L114.6 13.4111C120.653 10.17 127.823 9.64204 134.283 11.9657C135.265 12.599 135.342 13.3299 134.514 14.1587L77.4903 50.0116H32.9508V59.926H78.9196C79.8534 59.926 80.768 59.6624 81.5584 59.1654L139.791 22.5519C143.427 20.2663 145.397 16.1902 144.933 11.9149Z" fill="#145ECC"/>
<path d="M37.7559 64.2043L24.8894 71.2234C22.6169 72.463 19.7699 71.5016 18.7146 69.1376L0.386148 28.08C-0.573696 25.9301 0.313649 23.4047 2.40715 22.3277L16.2617 15.1989C18.5587 14.0169 21.376 15.0403 22.3789 17.4213L39.7193 58.5886C40.6036 60.6868 39.7549 63.1137 37.7559 64.2043Z" fill="#FFC107"/>
</svg>
