<svg width="20" height="21" viewBox="0 0 20 21" fill="none" xmlns="http://www.w3.org/2000/svg">
<g clip-path="url(#clip0_1_629)">
<path d="M17.5 8.83337C17.5 14.6667 10 19.6667 10 19.6667C10 19.6667 2.5 14.6667 2.5 8.83337C2.5 6.84425 3.29018 4.9366 4.6967 3.53007C6.10322 2.12355 8.01088 1.33337 10 1.33337C11.9891 1.33337 13.8968 2.12355 15.3033 3.53007C16.7098 4.9366 17.5 6.84425 17.5 8.83337Z" stroke="#5C3B39" stroke-width="1.5" stroke-linecap="round" stroke-linejoin="round"/>
<path d="M10 11.3334C11.3807 11.3334 12.5 10.2141 12.5 8.83337C12.5 7.45266 11.3807 6.33337 10 6.33337C8.61929 6.33337 7.5 7.45266 7.5 8.83337C7.5 10.2141 8.61929 11.3334 10 11.3334Z" stroke="#5C3B39" stroke-width="1.5" stroke-linecap="round" stroke-linejoin="round"/>
</g>
<defs>
<clipPath id="clip0_1_629">
<rect width="20" height="20" fill="white" transform="translate(0 0.5)"/>
</clipPath>
</defs>
</svg>
