<svg width="164" height="31" viewBox="0 0 164 31" fill="none" xmlns="http://www.w3.org/2000/svg">
<path d="M158.486 7.168H163.798L157.878 23.168H152.438L146.518 7.168H151.83L155.158 17.312L158.486 7.168Z" fill="white"/>
<path d="M139.957 7.168H144.757V23.168H139.957V21.664C138.997 22.9653 137.472 23.616 135.381 23.616C133.675 23.616 132.245 23.0293 131.093 21.856C129.963 20.6827 129.397 19.0613 129.397 16.992V7.168H134.197V16.288C134.197 17.2267 134.453 17.952 134.965 18.464C135.499 18.9547 136.171 19.2 136.981 19.2C137.899 19.2 138.624 18.9227 139.157 18.368C139.691 17.8133 139.957 16.992 139.957 15.904V7.168Z" fill="white"/>
<path d="M118.637 18.24H127.373V23.168H112.013V19.2L120.589 5.696H112.173V0.767998H127.213V4.736L118.637 18.24Z" fill="white"/>
<path d="M101.622 11.776H98.3262V17.44C98.3262 18.08 98.5822 18.4853 99.0942 18.656C99.6062 18.8267 100.449 18.88 101.622 18.816V23.168C98.5716 23.488 96.4596 23.2 95.2862 22.304C94.1129 21.3867 93.5262 19.7653 93.5262 17.44V11.776H90.9662V7.168H93.5262V4.128L98.3262 2.688V7.168H101.622V11.776Z" fill="white"/>
<path d="M83.0825 23.616C80.6505 23.616 78.6238 22.8053 77.0025 21.184C75.4025 19.5627 74.6025 17.5573 74.6025 15.168C74.6025 12.7787 75.4025 10.7733 77.0025 9.152C78.6238 7.53067 80.6505 6.72 83.0825 6.72C84.6185 6.72 86.0265 7.09333 87.3065 7.84C88.6078 8.58667 89.6105 9.57867 90.3145 10.816L86.1225 13.248C85.5465 12.0533 84.5118 11.456 83.0185 11.456C81.9731 11.456 81.1091 11.808 80.4265 12.512C79.7438 13.1947 79.4025 14.08 79.4025 15.168C79.4025 16.256 79.7438 17.152 80.4265 17.856C81.1091 18.5387 81.9731 18.88 83.0185 18.88C84.5331 18.88 85.5678 18.2827 86.1225 17.088L90.3145 19.488C89.6105 20.7467 88.6185 21.7493 87.3385 22.496C86.0585 23.2427 84.6398 23.616 83.0825 23.616Z" fill="white"/>
<path d="M61.2843 17.088C61.8389 18.5813 63.1189 19.328 65.1243 19.328C66.4256 19.328 67.4496 18.9227 68.1963 18.112L72.0363 20.32C70.4576 22.5173 68.1323 23.616 65.0603 23.616C62.3723 23.616 60.2176 22.816 58.5963 21.216C56.9963 19.616 56.1963 17.6 56.1963 15.168C56.1963 12.7573 56.9856 10.752 58.5643 9.152C60.1643 7.53067 62.2123 6.72 64.7083 6.72C67.0336 6.72 68.9643 7.53067 70.5003 9.152C72.0576 10.752 72.8363 12.7573 72.8363 15.168C72.8363 15.8507 72.7723 16.4907 72.6443 17.088H61.2843ZM61.1883 13.504H68.0683C67.5989 11.8187 66.4683 10.976 64.6763 10.976C62.8203 10.976 61.6576 11.8187 61.1883 13.504Z" fill="white"/>
<path d="M53.0798 4.928C52.5251 5.48267 51.8531 5.76 51.0638 5.76C50.2744 5.76 49.5918 5.48267 49.0158 4.928C48.4611 4.352 48.1838 3.66933 48.1838 2.88C48.1838 2.09067 48.4611 1.41867 49.0158 0.864C49.5918 0.288 50.2744 0 51.0638 0C51.8531 0 52.5251 0.288 53.0798 0.864C53.6558 1.41867 53.9438 2.09067 53.9438 2.88C53.9438 3.66933 53.6558 4.352 53.0798 4.928ZM48.6638 23.168V7.168H53.4638V23.168C53.4638 25.664 52.8664 27.4667 51.6718 28.576C50.4771 29.6853 48.6211 30.1653 46.1038 30.016V25.408C46.9998 25.4507 47.6504 25.2907 48.0558 24.928C48.4611 24.5867 48.6638 24 48.6638 23.168Z" fill="white"/>
<path d="M43.4735 21.184C41.8308 22.8053 39.8255 23.616 37.4575 23.616C35.0895 23.616 33.0842 22.8053 31.4415 21.184C29.7988 19.5413 28.9775 17.536 28.9775 15.168C28.9775 12.8 29.7988 10.8053 31.4415 9.184C33.0842 7.54133 35.0895 6.72 37.4575 6.72C39.8255 6.72 41.8308 7.54133 43.4735 9.184C45.1162 10.8053 45.9375 12.8 45.9375 15.168C45.9375 17.536 45.1162 19.5413 43.4735 21.184ZM34.8335 17.888C35.5375 18.592 36.4122 18.944 37.4575 18.944C38.5028 18.944 39.3775 18.592 40.0815 17.888C40.7855 17.184 41.1375 16.2773 41.1375 15.168C41.1375 14.0587 40.7855 13.152 40.0815 12.448C39.3775 11.744 38.5028 11.392 37.4575 11.392C36.4122 11.392 35.5375 11.744 34.8335 12.448C34.1295 13.152 33.7775 14.0587 33.7775 15.168C33.7775 16.2773 34.1295 17.184 34.8335 17.888Z" fill="white"/>
<path d="M23.2025 10.016C23.5012 8.992 24.0985 8.21333 24.9945 7.68C25.9118 7.12533 26.9145 6.848 28.0025 6.848V12.288C26.8292 12.096 25.7305 12.2987 24.7065 12.896C23.7038 13.472 23.2025 14.4853 23.2025 15.936V23.168H18.4025V7.168H23.2025V10.016Z" fill="white"/>
<path d="M8.48 0.767998C10.6773 0.767998 12.5333 1.51466 14.048 3.008C15.5627 4.50133 16.32 6.31467 16.32 8.448C16.32 10.5813 15.5627 12.3947 14.048 13.888C12.5333 15.3813 10.6773 16.128 8.48 16.128H5.12V23.168H0V0.767998H8.48ZM8.48 11.328C9.26933 11.328 9.92 11.0507 10.432 10.496C10.944 9.94133 11.2 9.25867 11.2 8.448C11.2 7.63733 10.944 6.95466 10.432 6.4C9.92 5.84533 9.26933 5.568 8.48 5.568H5.12V11.328H8.48Z" fill="white"/>
</svg>
