<svg width="164" height="31" viewBox="0 0 164 31" fill="none" xmlns="http://www.w3.org/2000/svg">
<path d="M158.546 8H163.858L157.938 24H152.498L146.578 8H151.89L155.218 18.144L158.546 8Z" fill="white"/>
<path d="M140.018 8H144.818V24H140.018V22.496C139.058 23.7973 137.533 24.448 135.442 24.448C133.735 24.448 132.306 23.8613 131.154 22.688C130.023 21.5147 129.458 19.8933 129.458 17.824V8H134.258V17.12C134.258 18.0587 134.514 18.784 135.026 19.296C135.559 19.7867 136.231 20.032 137.042 20.032C137.959 20.032 138.685 19.7547 139.218 19.2C139.751 18.6453 140.018 17.824 140.018 16.736V8Z" fill="white"/>
<path d="M118.697 19.0721H127.433V24.0001H112.073V20.0321L120.649 6.5281H112.233V1.6001H127.273V5.5681L118.697 19.0721Z" fill="white"/>
<path d="M101.683 12.608H98.3868V18.272C98.3868 18.912 98.6429 19.3174 99.1549 19.488C99.6669 19.6587 100.51 19.712 101.683 19.648V24C98.6322 24.32 96.5202 24.032 95.3469 23.136C94.1735 22.2187 93.5869 20.5974 93.5869 18.272V12.608H91.0269V8.00002H93.5869V4.96002L98.3868 3.52002V8.00002H101.683V12.608Z" fill="white"/>
<path d="M83.1431 24.4482C80.7111 24.4482 78.6844 23.6376 77.0631 22.0162C75.4631 20.3949 74.6631 18.3896 74.6631 16.0002C74.6631 13.6109 75.4631 11.6056 77.0631 9.98425C78.6844 8.36291 80.7111 7.55225 83.1431 7.55225C84.6791 7.55225 86.0871 7.92558 87.3671 8.67225C88.6684 9.41891 89.6711 10.4109 90.3751 11.6482L86.1831 14.0802C85.6071 12.8856 84.5724 12.2882 83.0791 12.2882C82.0338 12.2882 81.1698 12.6402 80.4871 13.3442C79.8044 14.0269 79.4631 14.9122 79.4631 16.0002C79.4631 17.0882 79.8044 17.9842 80.4871 18.6882C81.1698 19.3709 82.0338 19.7122 83.0791 19.7122C84.5938 19.7122 85.6284 19.1149 86.1831 17.9202L90.3751 20.3202C89.6711 21.5789 88.6791 22.5816 87.3991 23.3282C86.1191 24.0749 84.7004 24.4482 83.1431 24.4482Z" fill="white"/>
<path d="M61.3449 17.9202C61.8995 19.4136 63.1795 20.1602 65.1849 20.1602C66.4862 20.1602 67.5102 19.7549 68.2569 18.9442L72.0969 21.1522C70.5182 23.3496 68.1929 24.4482 65.1209 24.4482C62.4329 24.4482 60.2782 23.6482 58.6569 22.0482C57.0569 20.4482 56.2569 18.4322 56.2569 16.0002C56.2569 13.5896 57.0462 11.5842 58.6249 9.98425C60.2249 8.36291 62.2729 7.55225 64.7689 7.55225C67.0942 7.55225 69.0249 8.36291 70.5609 9.98425C72.1182 11.5842 72.8969 13.5896 72.8969 16.0002C72.8969 16.6829 72.8329 17.3229 72.7049 17.9202H61.3449ZM61.2489 14.3362H68.1289C67.6595 12.6509 66.5289 11.8082 64.7369 11.8082C62.8809 11.8082 61.7182 12.6509 61.2489 14.3362Z" fill="white"/>
<path d="M53.1404 5.76003C52.5857 6.3147 51.9137 6.59203 51.1244 6.59203C50.335 6.59203 49.6524 6.3147 49.0764 5.76003C48.5217 5.18403 48.2444 4.50137 48.2444 3.71203C48.2444 2.9227 48.5217 2.2507 49.0764 1.69603C49.6524 1.12003 50.335 0.832031 51.1244 0.832031C51.9137 0.832031 52.5857 1.12003 53.1404 1.69603C53.7164 2.2507 54.0044 2.9227 54.0044 3.71203C54.0044 4.50137 53.7164 5.18403 53.1404 5.76003ZM48.7244 24V8.00003H53.5244V24C53.5244 26.496 52.927 28.2987 51.7324 29.408C50.5377 30.5174 48.6817 30.9974 46.1644 30.848V26.24C47.0604 26.2827 47.711 26.1227 48.1164 25.76C48.5217 25.4187 48.7244 24.832 48.7244 24Z" fill="white"/>
<path d="M43.5341 22.0162C41.8915 23.6376 39.8861 24.4482 37.5181 24.4482C35.1501 24.4482 33.1448 23.6376 31.5021 22.0162C29.8595 20.3736 29.0381 18.3682 29.0381 16.0002C29.0381 13.6322 29.8595 11.6376 31.5021 10.0162C33.1448 8.37358 35.1501 7.55225 37.5181 7.55225C39.8861 7.55225 41.8915 8.37358 43.5341 10.0162C45.1768 11.6376 45.9981 13.6322 45.9981 16.0002C45.9981 18.3682 45.1768 20.3736 43.5341 22.0162ZM34.8941 18.7202C35.5981 19.4242 36.4728 19.7762 37.5181 19.7762C38.5635 19.7762 39.4381 19.4242 40.1421 18.7202C40.8461 18.0162 41.1981 17.1096 41.1981 16.0002C41.1981 14.8909 40.8461 13.9842 40.1421 13.2802C39.4381 12.5762 38.5635 12.2242 37.5181 12.2242C36.4728 12.2242 35.5981 12.5762 34.8941 13.2802C34.1901 13.9842 33.8381 14.8909 33.8381 16.0002C33.8381 17.1096 34.1901 18.0162 34.8941 18.7202Z" fill="white"/>
<path d="M23.2631 10.8482C23.5618 9.82418 24.1591 9.04551 25.0551 8.51218C25.9724 7.95751 26.9751 7.68018 28.0631 7.68018V13.1202C26.8898 12.9282 25.7911 13.1308 24.7671 13.7282C23.7644 14.3042 23.2631 15.3175 23.2631 16.7682V24.0002H18.4631V8.00018H23.2631V10.8482Z" fill="white"/>
<path d="M8.54061 1.6001C10.7379 1.6001 12.5939 2.34676 14.1086 3.8401C15.6233 5.33343 16.3806 7.14677 16.3806 9.2801C16.3806 11.4134 15.6233 13.2268 14.1086 14.7201C12.5939 16.2134 10.7379 16.9601 8.54061 16.9601H5.18061V24.0001H0.0606079V1.6001H8.54061ZM8.54061 12.1601C9.32994 12.1601 9.98061 11.8828 10.4926 11.3281C11.0046 10.7734 11.2606 10.0908 11.2606 9.2801C11.2606 8.46943 11.0046 7.78676 10.4926 7.2321C9.98061 6.67743 9.32994 6.4001 8.54061 6.4001H5.18061V12.1601H8.54061Z" fill="white"/>
</svg>
