<svg width="24" height="24" viewBox="0 0 24 24" fill="none" xmlns="http://www.w3.org/2000/svg">
<circle cx="12" cy="12" r="12" fill="#145ECC"/>
<path d="M11.7629 5.50279C11.8394 5.27594 12.1602 5.27594 12.2367 5.50279L13.6421 9.67186C13.6764 9.77354 13.7717 9.842 13.879 9.842H18.407C18.6514 9.842 18.7506 10.1566 18.5504 10.2968L14.9032 12.8508C14.8124 12.9144 14.7743 13.0303 14.8097 13.1354L16.2065 17.2788C16.2836 17.5076 16.0239 17.7019 15.8262 17.5635L12.1432 14.9844C12.0571 14.9241 11.9425 14.9241 11.8564 14.9844L8.17339 17.5635C7.97568 17.7019 7.71599 17.5076 7.79309 17.2788L9.18988 13.1354C9.22531 13.0303 9.18724 12.9144 9.09638 12.8508L5.44924 10.2968C5.24904 10.1566 5.34824 9.842 5.59264 9.842H10.1206C10.2279 9.842 10.3232 9.77354 10.3575 9.67186L11.7629 5.50279Z" fill="white"/>
</svg>
